<?xml version="1.0" encoding="UTF-8"?><svg id="b" xmlns="http://www.w3.org/2000/svg" viewBox="0 0 114.59 54.83"><defs><style>.d{fill:#fff;}</style></defs><g id="c"><path class="d" d="m1.37,29.31c.45.34,1,.64,1.64.88s1.37.5,2.19.76c.15.05.28.15.4.28.12.13.17.27.17.42,0,.23-.1.41-.3.54-.2.13-.41.19-.63.19-.64,0-1.25-.11-1.82-.34-.57-.23-1.18-.52-1.8-.89l-1.02,3.98c.33.14.67.27,1.01.41.35.14.72.26,1.12.37s.82.2,1.27.27.94.1,1.48.1c.72,0,1.39-.12,2-.35s1.13-.55,1.58-.96c.44-.41.79-.9,1.04-1.46s.37-1.17.37-1.82c0-2.04-1.22-3.43-3.65-4.18-.25-.07-.46-.13-.64-.19s-.39-.13-.64-.19c-.22-.07-.39-.16-.51-.27s-.18-.26-.18-.45c0-.18.11-.33.32-.47.21-.14.51-.2.89-.2.48,0,.96.09,1.46.28.49.18,1.02.4,1.58.65l1.07-4.22-3.63-.59-.14.59c-.27-.05-.5-.1-.69-.14s-.41-.06-.69-.06c-.7,0-1.33.11-1.91.32s-1.06.5-1.46.86c-.4.36-.7.79-.92,1.28-.22.49-.33,1.02-.33,1.58,0,.74.12,1.35.35,1.82.23.48.57.89,1.02,1.23Z"/><path class="d" d="m15.76,35.76c.86.36,1.78.54,2.77.54.9,0,1.77-.17,2.6-.51.83-.34,1.57-.82,2.21-1.45.64-.62,1.16-1.36,1.54-2.22.38-.86.57-1.81.57-2.85,0-.93-.18-1.82-.54-2.68-.36-.85-.85-1.61-1.48-2.26-.62-.65-1.35-1.17-2.18-1.56-.83-.39-1.73-.58-2.69-.58-2.9,0-5,1.31-6.31,3.92-.29.56-.49,1.07-.62,1.52-.12.45-.18.99-.18,1.62,0,1,.18,1.93.55,2.79.37.86.87,1.61,1.51,2.23.63.63,1.38,1.12,2.24,1.49Zm.07-7.56c.13-.35.32-.66.56-.94s.55-.51.91-.68.78-.26,1.24-.26c.42,0,.8.08,1.14.25.33.16.62.39.85.67s.41.6.54.95.2.72.2,1.09c0,.56-.11,1.03-.34,1.41-.23.38-.58.72-1.06,1.03-.25.15-.46.27-.66.35s-.43.12-.72.12c-.42,0-.81-.07-1.17-.23s-.66-.36-.91-.62c-.25-.26-.45-.57-.58-.93s-.21-.75-.21-1.16c0-.35.07-.71.2-1.06Z"/><path class="d" d="m28.08,30.49c0,.88.08,1.66.24,2.33.16.67.52,1.3,1.07,1.89,1.04,1.11,2.46,1.66,4.25,1.66.91,0,1.7-.13,2.37-.39.66-.26,1.26-.7,1.78-1.31.28-.32.5-.64.66-.96.17-.32.3-.65.39-.99.1-.34.16-.69.19-1.06.03-.37.04-.76.04-1.17v-7.66h-4v7.22c0,.35-.01.67-.03.96-.02.29-.08.55-.18.76-.1.21-.24.38-.44.5-.2.12-.46.18-.81.18-.39,0-.68-.06-.88-.19-.2-.13-.35-.3-.46-.52s-.16-.48-.18-.77c-.02-.29-.02-.61-.02-.94v-7.2h-4.43l-1.19,4h1.62v3.66Z"/><polygon class="d" points="48.67 35.83 49.7 31.83 46.17 31.83 49.9 21.83 41.81 21.83 40.77 25.83 44.14 25.83 40.43 35.83 48.67 35.83"/><path class="d" d="m55.35,35.83l.43-2h3.83l.43,2h4.52l-4.05-14h-6.75l-1.04,4h1.12l-2.96,10h4.47Zm2.34-9.47l1.07,4.47h-2.13l1.07-4.47Z"/><path class="d" d="m9.33,47.57c.74-.36,1.28-.8,1.61-1.32.33-.51.49-1.17.49-1.97,0-.65-.18-1.24-.53-1.78-.35-.54-.83-.95-1.45-1.23-.49-.22-1.02-.35-1.6-.39-.58-.04-1.21-.05-1.92-.05H1.08L.05,44.83h1.02v10h4.86c.8,0,1.51-.02,2.13-.05.62-.03,1.15-.15,1.6-.35.67-.28,1.21-.72,1.6-1.33.39-.6.59-1.28.59-2.02,0-.88-.21-1.61-.63-2.19s-1.05-1.02-1.89-1.33Zm-2.52,3.07c-.25.13-.65.19-1.19.19h-.54v-2h.68c.54,0,.92.09,1.13.28.21.19.31.39.31.61,0,.48-.13.78-.38.91Zm.21-3.97c-.32.11-.74.17-1.25.17h-.7v-2h.94c.18,0,.37.01.56.03.19.02.37.09.54.21.09.08.18.18.26.3.08.13.12.24.12.35,0,.51-.16.82-.48.93Z"/><path class="d" d="m15.9,40.83l-1.04,4h1.12l-2.96,10h4.47l.43-2h3.83l.43,2h4.52l-4.05-14h-6.75Zm2.86,8l1.07-4.47,1.07,4.47h-2.13Z"/><path class="d" d="m39.72,45.99c0-.85-.18-1.63-.52-2.34-.35-.71-.84-1.29-1.47-1.75-.6-.45-1.25-.74-1.94-.87s-1.48-.2-2.36-.2h-4.35l-1.02,4h1.02v10h4v-4h.14l1.84,4h4.91l-2.67-4.37c1.61-1.06,2.41-2.55,2.41-4.47Zm-4.54,1.1c-.26.23-.64.35-1.13.73h-.98v-3h.93c.52.11.91.23,1.17.46.26.23.39.52.39.86,0,.4-.13.71-.39.94Z"/><path class="d" d="m50.33,47.57c.74-.36,1.28-.8,1.61-1.32.33-.51.49-1.17.49-1.97,0-.65-.18-1.24-.53-1.78-.35-.54-.83-.95-1.45-1.23-.49-.22-1.02-.35-1.6-.39-.58-.04-1.21-.05-1.92-.05h-4.86l-1.02,4h1.02v10h4.86c.8,0,1.51-.02,2.13-.05.62-.03,1.15-.15,1.6-.35.67-.28,1.21-.72,1.6-1.33.39-.6.59-1.28.59-2.02,0-.88-.21-1.61-.63-2.19s-1.05-1.02-1.89-1.33Zm-2.52,3.07c-.25.13-.65.19-1.19.19h-.54v-2h.68c.54,0,.92.09,1.13.28.21.19.31.39.31.61,0,.48-.13.78-.38.91Zm.21-3.97c-.32.11-.74.17-1.25.17h-.7v-2h.94c.18,0,.37.01.56.03.19.02.37.09.54.21.09.08.18.18.26.3.08.13.12.24.12.35,0,.51-.16.82-.48.93Z"/><polygon class="d" points="63.43 44.83 64.68 39.83 60.6 39.83 60.46 40.83 55.08 40.83 54.08 44.83 55.08 44.83 55.08 54.83 62.79 54.83 63.8 50.83 59.08 50.83 59.08 48.83 62.86 48.83 63.64 45.83 59.08 45.83 59.08 44.83 63.43 44.83"/><path class="d" d="m68.48,40.83l-1.04,4h1.12l-2.96,10h4.47l.43-2h3.83l.43,2h4.52l-4.05-14h-6.75Zm2.86,8l1.07-4.47,1.07,4.47h-2.13Z"/><path class="d" d="m92.31,45.99c0-.85-.18-1.63-.52-2.34-.35-.71-.84-1.29-1.47-1.75-.6-.45-1.25-.74-1.94-.87s-1.48-.2-2.36-.2h-3.93l-1.02,4h1.02v10h4v-4h.14l1.84,4h4.5l-2.67-4.37c1.61-1.06,2.41-2.55,2.41-4.47Zm-4.54,1.1c-.26.23-.64.35-1.13.73h-.56v-3h.52c.52.11.91.23,1.17.46.26.23.39.52.39.86,0,.4-.13.71-.39.94Z"/><polygon class="d" points="94.04 44.83 95.08 44.83 95.08 54.83 99.08 54.83 99.08 40.83 95.08 40.83 94.04 44.83"/><path class="d" d="m110.54,40.83h-6.75l-1.04,4h1.12l-2.96,10h4.47l.43-2h3.83l.43,2h4.52l-4.05-14Zm-3.89,8l1.07-4.47,1.07,4.47h-2.13Z"/><path class="d" d="m98.83,19.46l2.15,4.19.61-.31-2.15-4.19.54-.28,2.15,4.19.61-.31-2.15-4.19.51-.26,2.15,4.19.61-.31-2.15-4.19.43-.22,2.15,4.19.61-.31-2.15-4.19.51-.26,2.15,4.19.61-.31-2.15-4.19.53-.27,2.15,4.19.61-.31-2.15-4.19.51-.26,2.15,4.19.61-.31-2.15-4.19.53-.27,2.15,4.19.6-.31-2.15-4.19.33-.17c.2-.1.32-.16.32-.16,0,0,1.64,3.2,1.88,3.67.24.48.64.71,1.33.27-.32-.61-2.44-4.97-2.67-5.42-.23-.45-.61-.89-1.05-.66-.02,0-.12.06-.29.15-.13.07-.29.15-.49.25l-16.79,8.6c.02-.08.03-.15.05-.23.31-.75,5.09-20.52,5.09-20.52l-.15-.95-7.11,17.41,1.04,2.47-1.28,3.03-13.14,6.73c-.47.24-.75.38-.78.4-.44.23-.31.8-.08,1.24.23.45,2.53,4.72,2.84,5.33.76-.3.81-.76.56-1.24-.25-.48-1.88-3.68-1.88-3.68,0,0,.11-.06.32-.16l.4-.21,2.15,4.19.61-.31-2.15-4.19.51-.26,2.15,4.19.61-.31-2.15-4.19.43-.22,2.15,4.19.61-.31-2.15-4.19.51-.26,2.15,4.19.61-.31-2.15-4.19.52-.27,2.15,4.19.61-.31-2.15-4.19.51-.26,2.13,4.16c-.04.08-.08.15-.12.23-.99,2.12-.57,4.57,1.02,5.94.29.25.61.46.96.62,1.12.52,2.4.52,3.6-.01,1.17-.52,2.12-1.47,2.69-2.69.84-1.81.66-3.85-.4-5.26-.1-.2-.52-1.05-.9-2.3l.3-.15-.69-1.34c-.12-.58-.22-1.21-.28-1.87l1.51,2.94.61-.31-2.15-4.19.51-.26,2.15,4.19.61-.31-2.15-4.19.43-.22,2.15,4.19.61-.31-2.15-4.19.51-.26,2.15,4.19.61-.31-2.15-4.18.53-.27,2.15,4.19.61-.31-2.15-4.19.51-.26,2.15,4.19.6-.31-2.15-4.19.5-.26,2.15,4.19.61-.31-2.15-4.19.51-.26,2.15,4.19.6-.31-2.15-4.19.53-.27,2.15,4.19.61-.31-2.15-4.19.51-.26Zm-12.7,6.51l-.03.08-.02-.05.06-.03Zm-.66.34l.29.56-.29.69-.5-.98.51-.26Zm-1.11.57l.77,1.49-.24.58-.95-1.85.43-.22Zm-1.03.53l1.21,2.36-.29.68-1.43-2.79.51-.26Zm.33,4.44l-1.87-3.65.43-.22,1.69,3.29-.24.58Zm5.82.08c1.09.94,1.36,2.67.65,4.2-.42.89-1.11,1.59-1.95,1.96-.81.36-1.65.37-2.38.03-.22-.1-.43-.24-.61-.4-1.09-.95-1.36-2.67-.65-4.2.42-.9,1.11-1.59,1.95-1.97.8-.36,1.65-.37,2.38-.03.22.11.43.24.62.4Zm-.62-13.82c-.33-.28-.36-.78-.08-1.1.28-.33.77-.36,1.1-.08.32.28.36.77.08,1.1-.28.33-.77.36-1.1.08Z"/><path class="d" d="m91.07,19.12l15.33-9.06-1,.02s-7.72,3.15-13.44,5.52c-.34,1.35-.64,2.57-.89,3.53Z"/><path class="d" d="m69.5,26.05c1.57,1.36,4.03,1.44,5.98.19,0,0,.01-.01.02-.02,0,.02-.01.03-.01.03l12.17-7.21h0s-.6-1.42-.6-1.42c-.63.27-1.04.45-1.13.51-4.79,1.96-9.85.19-10.21.06-1.53-.79-3.52-.68-5.16.36-1.14.73-1.96,1.8-2.31,3.03-.37,1.26-.2,2.53.47,3.57.22.34.48.64.78.9Zm.17-4.06c.26-.88.86-1.66,1.69-2.19,1.4-.9,3.14-.87,4.22.07.19.17.36.36.5.58.43.68.54,1.52.29,2.36-.26.88-.86,1.66-1.69,2.19-1.41.9-3.14.87-4.23-.06-.19-.17-.36-.36-.5-.58-.43-.68-.54-1.52-.29-2.37Z"/></g></svg>